<?xml version="1.0" standalone="no"?>
<!DOCTYPE svg PUBLIC "-//W3C//DTD SVG 20010904//EN"
 "http://www.w3.org/TR/2001/REC-SVG-20010904/DTD/svg10.dtd">
<svg version="1.0" xmlns="http://www.w3.org/2000/svg"
 width="800.000000pt" height="802.000000pt" viewBox="0 0 800.000000 802.000000"
 preserveAspectRatio="xMidYMid meet">

<g transform="translate(0.000000,802.000000) scale(0.100000,-0.100000)"
fill="#000000" stroke="none">
<path d="M0 4020 c0 -6 41 -10 103 -10 216 0 579 -32 807 -71 600 -103 956
-342 1051 -707 26 -97 28 -306 5 -435 -54 -299 -255 -709 -563 -1149 -288
-411 -724 -921 -1247 -1456 -88 -89 -156 -165 -153 -169 4 -3 80 66 170 153
363 355 780 693 1182 959 716 474 1408 745 2165 847 222 30 706 32 930 5 546
-68 1028 -217 1560 -483 611 -306 1259 -781 1832 -1343 82 -79 151 -142 154
-138 4 4 -76 92 -178 196 -920 940 -1517 1751 -1717 2333 -65 192 -86 301 -85
463 0 162 16 242 70 351 117 236 364 410 729 512 280 79 570 117 963 129 122
3 222 10 222 15 0 4 -1800 8 -4000 8 -2660 0 -4000 -3 -4000 -10z"/>
</g>
</svg>
