<?xml version="1.0" standalone="no"?>
<!DOCTYPE svg PUBLIC "-//W3C//DTD SVG 20010904//EN"
 "http://www.w3.org/TR/2001/REC-SVG-20010904/DTD/svg10.dtd">
<svg version="1.0" xmlns="http://www.w3.org/2000/svg"
 width="800.000000pt" height="802.000000pt" viewBox="0 0 800.000000 802.000000"
 preserveAspectRatio="xMidYMid meet">

<g transform="translate(0.000000,802.000000) scale(0.100000,-0.100000)"
fill="#000000" stroke="none">
<path d="M0 4020 c0 -6 48 -10 123 -10 259 0 686 -38 966 -86 320 -54 686
-161 960 -280 381 -166 669 -361 944 -637 231 -233 390 -451 537 -742 222
-436 355 -906 420 -1485 22 -204 40 -475 40 -625 0 -63 4 -105 10 -105 6 0 10
43 10 108 0 245 39 680 86 951 113 657 342 1205 692 1658 95 122 344 372 462
462 308 238 656 419 1047 546 150 49 440 120 613 149 285 49 705 86 970 86 73
0 120 4 120 10 0 7 -1340 10 -4000 10 -2660 0 -4000 -3 -4000 -10z"/>
</g>
</svg>
