<?xml version="1.0" standalone="no"?>
<!DOCTYPE svg PUBLIC "-//W3C//DTD SVG 20010904//EN"
 "http://www.w3.org/TR/2001/REC-SVG-20010904/DTD/svg10.dtd">
<svg version="1.0" xmlns="http://www.w3.org/2000/svg"
 width="800.000000pt" height="802.000000pt" viewBox="0 0 800.000000 802.000000"
 preserveAspectRatio="xMidYMid meet">

<g transform="translate(0.000000,802.000000) scale(0.100000,-0.100000)"
fill="#000000" stroke="none">
<path d="M0 2004 c0 -1601 3 -2005 13 -2001 6 3 90 42 186 87 793 372 1540
613 2341 755 80 14 154 27 165 29 11 2 47 7 80 10 33 4 76 11 95 16 77 20 497
60 739 71 482 22 1107 -5 1446 -61 33 -5 134 -21 225 -36 91 -14 174 -27 185
-29 215 -35 650 -137 930 -219 459 -133 875 -291 1398 -530 104 -47 190 -86
193 -86 2 0 4 900 4 2000 l0 2000 -4000 0 -4000 0 0 -2006z"/>
</g>
</svg>
